<svg xmlns="http://www.w3.org/2000/svg" xmlns:xlink="http://www.w3.org/1999/xlink" x="0" y="0" width="455.995361328125" height="288.9901428222656" style="
        width:455.995361328125px;
        height:288.9901428222656px;
        background: #FFF;
        fill: none;
">
        
        
        <svg xmlns="http://www.w3.org/2000/svg" class="role-diagram-draw-area"><g class="shapes-region" style="stroke: black; fill: none;"><g class="composite-shape"><path class="real" d=" M81.22,198.78 L261.72,166.95 L267.79,201.38 L87.29,233.2 Z" style="stroke-width: 1; stroke: rgb(0, 0, 0); fill: none; fill-opacity: 1;"/></g><g class="composite-shape"><path class="real" d=" M239.2,102 L372.96,78.42 L378.8,111.55 L245.05,135.13 Z" style="stroke-width: 1; stroke: rgb(0, 0, 0); fill: none; fill-opacity: 1;"/></g><g class="arrow-line"><path class="connection real" stroke-dasharray="" d="  M3,181.78 L177.05,181.78" style="stroke: rgb(0, 0, 0); stroke-width: 1; fill: none; fill-opacity: 1;"/><g><g stroke="#000" transform="matrix(-1,1.2246467991473532e-16,-1.2246467991473532e-16,-1,96.02654867256636,181.7787610619469)" style="stroke: rgb(0, 0, 0); stroke-width: 1;"><path d=" M10.93,-3.29 Q4.96,-0.45 0,0 Q4.96,0.45 10.93,3.29"/></g></g></g><g class="arrow-line"><path class="connection real" stroke-dasharray="" d="  M173.1,181.78 L333.96,119.81" style="stroke: rgb(0, 0, 0); stroke-width: 1; fill: none; fill-opacity: 1;"/><g><g stroke="#000" transform="matrix(-0.9331419008175765,0.35950826546626174,-0.35950826546626174,-0.9331419008175765,259.12986344670736,148.63508597378043)" style="stroke: rgb(0, 0, 0); stroke-width: 1;"><path d=" M10.93,-3.29 Q4.96,-0.45 0,0 Q4.96,0.45 10.93,3.29"/></g></g></g><g class="arrow-line"><path class="connection real" stroke-dasharray="" d="  M333.96,119.81 L448.68,119.81" style="stroke: rgb(0, 0, 0); stroke-width: 1; fill: none; fill-opacity: 1;"/><g><g stroke="#000" transform="matrix(-1,1.2246467991473532e-16,-1.2246467991473532e-16,-1,397.3230088495575,119.80530973451327)" style="stroke: rgb(0, 0, 0); stroke-width: 1;"><path d=" M10.93,-3.29 Q4.96,-0.45 0,0 Q4.96,0.45 10.93,3.29"/></g></g></g><g class="composite-shape"><path class="real" d=" M171.12,181.78 C171.12,180.69 172,179.8 173.1,179.8 C174.19,179.8 175.08,180.69 175.08,181.78 C175.08,182.87 174.19,183.76 173.1,183.76 C172,183.76 171.12,182.87 171.12,181.78 Z" style="stroke-width: 1; stroke: rgb(0, 0, 0); fill: rgb(0, 0, 0); fill-opacity: 1;"/></g><g class="composite-shape"><path class="real" d=" M259.74,166.95 C259.74,165.86 260.62,164.97 261.72,164.97 C262.81,164.97 263.69,165.86 263.69,166.95 C263.69,168.04 262.81,168.93 261.72,168.93 C260.62,168.93 259.74,168.04 259.74,166.95 Z" style="stroke-width: 1; stroke: rgb(0, 0, 0); fill: rgb(0, 0, 0); fill-opacity: 1;"/></g><g class="composite-shape"><path class="real" d=" M331.99,119.81 C331.99,118.71 332.87,117.83 333.96,117.83 C335.06,117.83 335.94,118.71 335.94,119.81 C335.94,120.9 335.06,121.78 333.96,121.78 C332.87,121.78 331.99,120.9 331.99,119.81 Z" style="stroke-width: 1; stroke: rgb(0, 0, 0); fill: rgb(0, 0, 0); fill-opacity: 1;"/></g><g class="composite-shape"><path class="real" d=" M312.72,122.66 C312.72,121.57 313.61,120.68 314.7,120.68 C315.79,120.68 316.68,121.57 316.68,122.66 C316.68,123.75 315.79,124.64 314.7,124.64 C313.61,124.64 312.72,123.75 312.72,122.66 Z" style="stroke-width: 1; stroke: rgb(0, 0, 0); fill: rgb(0, 0, 0); fill-opacity: 1;"/></g><g class="composite-shape"><path class="real" d=" M275.95,53.22 C275.95,52.12 276.83,51.24 277.92,51.24 C279.02,51.24 279.9,52.12 279.9,53.22 C279.9,54.31 279.02,55.19 277.92,55.19 C276.83,55.19 275.95,54.31 275.95,53.22 Z" style="stroke-width: 1; stroke: rgb(0, 0, 0); fill: rgb(0, 0, 0); fill-opacity: 1;"/></g><g class="composite-shape"><path class="real" d=" M243.07,135.13 C243.07,134.04 243.95,133.15 245.05,133.15 C246.14,133.15 247.02,134.04 247.02,135.13 C247.02,136.22 246.14,137.11 245.05,137.11 C243.95,137.11 243.07,136.22 243.07,135.13 Z" style="stroke-width: 1; stroke: rgb(0, 0, 0); fill: rgb(0, 0, 0); fill-opacity: 1;"/></g><g class="arrow-line"><path class="connection real" stroke-dasharray="2 2" d="  M302.32,65.74 L314.7,122.66" style="stroke: rgb(0, 0, 0); stroke-width: 1; fill: none; fill-opacity: 1;"/></g><g class="arrow-line"><path class="connection real" stroke-dasharray="2 2" d="  M318.14,43.33 L347.15,177.82" style="stroke: rgb(0, 0, 0); stroke-width: 1; fill: none; fill-opacity: 1;"/></g><g class="composite-shape"><path class="real" d=" M370.79,121.47 C373.51,129.75 372.01,139.2 366,146.37 C360.78,152.59 353.28,155.76 345.75,155.68 L346.03,129.62 Z" style="stroke-width: 1; stroke: none; fill: none; fill-opacity: 1;"/><path class="real" d=" M371.59,124.49 C373.09,131.98 371.29,140.06 366,146.37 C361.46,151.78 355.19,154.88 348.68,155.55" style="stroke-width: 1; stroke: rgb(0, 0, 0); fill: none; fill-opacity: 1;"/><g stroke="none" fill="#000" transform="matrix(0.9980157542144626,-0.0629647070964153,0.0629647070964153,0.9980157542144626,345.750818323404,155.68052963839577)" style="stroke: none; fill: rgb(0, 0, 0); stroke-width: 1;"><path d=" M3.57,-1.72 L0,0 L3.57,1.72 Z"/></g><g stroke="none" fill="#000" transform="matrix(0.2348028203905819,0.9720430214433043,-0.9720430214433043,0.2348028203905819,370.793558115686,121.4667335739561)" style="stroke: none; fill: rgb(0, 0, 0); stroke-width: 1;"><path d=" M3.57,-1.72 L0,0 L3.57,1.72 Z"/></g></g><g class="composite-shape"><path class="real" d=" M340.09,156.86 C333.02,159.7 324.76,159.42 317.6,155.39 C309.65,150.92 304.95,142.9 304.37,134.43 L330.38,132.67 Z" style="stroke-width: 1; stroke: none; fill: none; fill-opacity: 1;"/><path class="real" d=" M337.17,157.84 C330.81,159.55 323.8,158.87 317.6,155.39 C310.57,151.43 306.08,144.7 304.73,137.33" style="stroke-width: 1; stroke: rgb(0, 0, 0); fill: none; fill-opacity: 1;"/><g stroke="none" fill="#000" transform="matrix(0.14090123193758392,0.9900236577165574,-0.9900236577165574,0.14090123193758392,304.37027398048644,134.43174329664765)" style="stroke: none; fill: rgb(0, 0, 0); stroke-width: 1;"><path d=" M3.57,-1.72 L0,0 L3.57,1.72 Z"/></g><g stroke="none" fill="#000" transform="matrix(-0.9545009274565263,0.2982079467160981,-0.2982079467160981,-0.9545009274565263,340.0913583205965,156.8598514177183)" style="stroke: none; fill: rgb(0, 0, 0); stroke-width: 1;"><path d=" M3.57,-1.72 L0,0 L3.57,1.72 Z"/></g></g><g class="arrow-line"><path class="connection real" stroke-dasharray="2 2" d="  M161.23,106.62 L184.96,241.12" style="stroke: rgb(0, 0, 0); stroke-width: 1; fill: none; fill-opacity: 1;"/></g><g class="composite-shape"><path class="real" d=" M168,142.37 C175.67,139.35 184.65,140 192.03,144.92 C199.63,149.97 203.71,158.32 203.66,166.81 L177.59,166.61 Z" style="stroke-width: 1; stroke: none; fill: none; fill-opacity: 1;"/><path class="real" d=" M170.94,141.41 C177.89,139.58 185.57,140.62 192.03,144.92 C198.75,149.39 202.73,156.44 203.51,163.89" style="stroke-width: 1; stroke: rgb(0, 0, 0); fill: none; fill-opacity: 1;"/><g stroke="none" fill="#000" transform="matrix(-0.06627390040000064,-0.99780146829205,0.99780146829205,-0.06627390040000064,203.65694364830625,166.80873606275173)" style="stroke: none; fill: rgb(0, 0, 0); stroke-width: 1;"><path d=" M3.57,-1.72 L0,0 L3.57,1.72 Z"/></g><g stroke="none" fill="#000" transform="matrix(0.9566612415939953,-0.29120314014762155,0.29120314014762155,0.9566612415939953,168.00341942225623,142.37383536332484)" style="stroke: none; fill: rgb(0, 0, 0); stroke-width: 1;"><path d=" M3.57,-1.72 L0,0 L3.57,1.72 Z"/></g></g><g class="composite-shape"><path class="real" d=" M143.77,180.64 C140.51,174.23 139.91,166.52 142.74,159.3 C146.53,149.65 155.45,143.52 165.15,142.82 L167,168.83 Z" style="stroke-width: 1; stroke: none; fill: none; fill-opacity: 1;"/><path class="real" d=" M142.56,177.87 C140.41,172.08 140.31,165.51 142.74,159.3 C146.15,150.61 153.72,144.78 162.27,143.19" style="stroke-width: 1; stroke: rgb(0, 0, 0); fill: none; fill-opacity: 1;"/><g stroke="none" fill="#000" transform="matrix(-0.9895761186026509,0.14401078255225241,-0.14401078255225241,-0.9895761186026509,165.15226399210863,142.82334914650005)" style="stroke: none; fill: rgb(0, 0, 0); stroke-width: 1;"><path d=" M3.57,-1.72 L0,0 L3.57,1.72 Z"/></g><g stroke="none" fill="#000" transform="matrix(-0.3818770497656745,-0.9242131349760533,0.9242131349760533,-0.3818770497656745,143.76670392758825,180.63638911195352)" style="stroke: none; fill: rgb(0, 0, 0); stroke-width: 1;"><path d=" M3.57,-1.72 L0,0 L3.57,1.72 Z"/></g></g><g class="composite-shape"><path class="real" d=" M130.88,143.52 L153.32,143.52 L153.32,165.96 L130.88,165.96 Z" style="stroke-width: 1; stroke: none; stroke-opacity: 1; fill: rgb(255, 255, 255); fill-opacity: 1;"/></g><g class="composite-shape"><path class="real" d=" M181.01,131.65 L203.45,131.65 L203.45,154.09 L181.01,154.09 Z" style="stroke-width: 1; stroke: none; stroke-opacity: 1; fill: rgb(255, 255, 255); fill-opacity: 1;"/></g><g class="composite-shape"><path class="real" d=" M308.89,138.27 L331.33,138.27 L331.33,160.7 L308.89,160.7 Z" style="stroke-width: 1; stroke: none; stroke-opacity: 1; fill: rgb(255, 255, 255); fill-opacity: 1;"/></g><g class="composite-shape"><path class="real" d=" M356.36,134.31 L378.8,134.31 L378.8,156.75 L356.36,156.75 Z" style="stroke-width: 1; stroke: none; stroke-opacity: 1; fill: rgb(255, 255, 255); fill-opacity: 1;"/></g><g class="arrow-line"><path class="connection real" stroke-dasharray="2 2" d="  M261.72,166.95 L271.99,221.34" style="stroke: rgb(0, 0, 0); stroke-width: 1; fill: none; fill-opacity: 1;"/></g><g class="arrow-line"><path class="connection real" stroke-dasharray="" d="  M187.91,228.69 L265.09,213.99" style="stroke: rgb(0, 0, 0); stroke-width: 1; fill: none; fill-opacity: 1;"/><g stroke="none" fill="#000" transform="matrix(-0.9823525993009239,0.18703842024225495,-0.18703842024225495,-0.9823525993009239,268.03539823008845,213.424778761062)" style="stroke: none; fill: rgb(0, 0, 0); stroke-width: 1;"><path d=" M3.57,-1.72 L0,0 L3.57,1.72 Z"/></g><g stroke="none" fill="#000" transform="matrix(0.9823525993009241,-0.18703842024225395,0.18703842024225395,0.9823525993009241,184.96460176991152,229.24778761061953)" style="stroke: none; fill: rgb(0, 0, 0); stroke-width: 1;"><path d=" M3.57,-1.72 L0,0 L3.57,1.72 Z"/></g></g><g class="arrow-line"><path class="connection real" stroke-dasharray="2 2" d="  M277.92,51.24 L298.36,158.04" style="stroke: rgb(0, 0, 0); stroke-width: 1; fill: none; fill-opacity: 1;"/></g><g class="composite-shape"><path class="real" d=" M296.38,160.02 C296.38,158.93 297.27,158.04 298.36,158.04 C299.46,158.04 300.34,158.93 300.34,160.02 C300.34,161.11 299.46,162 298.36,162 C297.27,162 296.38,161.11 296.38,160.02 Z" style="stroke-width: 1; stroke: rgb(0, 0, 0); fill: rgb(0, 0, 0); fill-opacity: 1;"/></g><g class="arrow-line"><path class="connection real" stroke-dasharray="2 2" d="  M261.72,166.95 L298.36,160.02" style="stroke: rgb(0, 0, 0); stroke-width: 1; fill: none; fill-opacity: 1;"/></g><g class="arrow-line"><path class="connection real" stroke-dasharray="2 2" d="  M308.91,214.74 L298.36,158.7" style="stroke: rgb(0, 0, 0); stroke-width: 1; fill: none; fill-opacity: 1;"/></g><g class="arrow-line"><path class="connection real" stroke-dasharray="" d="  M274.94,211.56 L304.64,206.06" style="stroke: rgb(208, 2, 27); stroke-opacity: 1; stroke-width: 1; fill: none; fill-opacity: 1;"/><g stroke="none" fill="rgb(208,2,27)" fill-opacity="1" transform="matrix(-0.9832866986873038,0.18206391236217961,-0.18206391236217961,-0.9832866986873038,307.59292035398227,205.5132743362832)" style="stroke: none; fill: rgb(208, 2, 27); stroke-width: 1;"><path d=" M3.57,-1.72 L0,0 L3.57,1.72 Z"/></g><g stroke="none" fill="rgb(208,2,27)" fill-opacity="1" transform="matrix(0.9832866986873038,-0.1820639123621795,0.1820639123621795,0.9832866986873038,271.9911504424779,212.1061946902655)" style="stroke: none; fill: rgb(208, 2, 27); stroke-width: 1;"><path d=" M3.57,-1.72 L0,0 L3.57,1.72 Z"/></g></g><g class="arrow-line"><path class="connection real" stroke-dasharray="2 2" d="  M256.17,57.83 L277.92,53.22" style="stroke: rgb(0, 0, 0); stroke-width: 1; fill: none; fill-opacity: 1;"/></g><g class="arrow-line"><path class="connection real" stroke-dasharray="2 2" d="  M239.03,53.88 L277.92,53.22" style="stroke: rgb(0, 0, 0); stroke-width: 1; fill: none; fill-opacity: 1;"/></g><g class="arrow-line"><path class="connection real" stroke-dasharray="" d="  M287.27,159.05 L268.58,58.14" style="stroke: rgb(208, 2, 27); stroke-opacity: 1; stroke-width: 1; fill: none; fill-opacity: 1;"/><g stroke="none" fill="rgb(208,2,27)" fill-opacity="1" transform="matrix(0.1820639123621787,0.983286698687304,-0.983286698687304,0.1820639123621787,268.0353982300885,55.19469026548674)" style="stroke: none; fill: rgb(208, 2, 27); stroke-width: 1;"><path d=" M3.57,-1.72 L0,0 L3.57,1.72 Z"/></g><g stroke="none" fill="rgb(208,2,27)" fill-opacity="1" transform="matrix(-0.18206391236217945,-0.9832866986873038,0.9832866986873038,-0.18206391236217945,287.8141592920354,162)" style="stroke: none; fill: rgb(208, 2, 27); stroke-width: 1;"><path d=" M3.57,-1.72 L0,0 L3.57,1.72 Z"/></g></g><g class="arrow-line"><path class="connection real" stroke-dasharray="2 2" d="  M232.43,122.44 L314.7,122.66" style="stroke: rgb(0, 0, 0); stroke-width: 1; fill: none; fill-opacity: 1;"/></g><g class="arrow-line"><path class="connection real" stroke-dasharray="" d="  M252.21,119.44 L252.21,58.19" style="stroke: rgb(208, 2, 27); stroke-opacity: 1; stroke-width: 1; fill: none; fill-opacity: 1;"/><g stroke="none" fill="rgb(208,2,27)" fill-opacity="1" transform="matrix(3.061616997868383e-16,1,-1,3.061616997868383e-16,252.21238938053096,55.19469026548674)" style="stroke: none; fill: rgb(208, 2, 27); stroke-width: 1;"><path d=" M3.57,-1.72 L0,0 L3.57,1.72 Z"/></g><g stroke="none" fill="rgb(208,2,27)" fill-opacity="1" transform="matrix(-1.8369701987210297e-16,-1,1,-1.8369701987210297e-16,252.21238938053096,122.44247787610621)" style="stroke: none; fill: rgb(208, 2, 27); stroke-width: 1;"><path d=" M3.57,-1.72 L0,0 L3.57,1.72 Z"/></g></g><g class="arrow-line"><path class="connection real" stroke-dasharray="2 2" d="  M173.1,179.8 L446.04,177.82" style="stroke: rgb(0, 0, 0); stroke-width: 1; fill: none; fill-opacity: 1;"/></g><g class="arrow-line"><path class="connection real" stroke-dasharray="2 2" d="  M311.55,15.64 L314.7,122.66" style="stroke: rgb(0, 0, 0); stroke-width: 1; fill: none; fill-opacity: 1;"/></g><g class="arrow-line"><path class="connection real" stroke-dasharray="2 2" d="  M277.92,15.64 L277.92,53.22" style="stroke: rgb(0, 0, 0); stroke-width: 1; fill: none; fill-opacity: 1;"/></g><g class="arrow-line"><path class="connection real" stroke-dasharray="" d="  M282.9,27.5 L308.55,27.5" style="stroke: rgb(208, 2, 27); stroke-opacity: 1; stroke-width: 1; fill: none; fill-opacity: 1;"/><g stroke="none" fill="rgb(208,2,27)" fill-opacity="1" transform="matrix(-1,1.2246467991473532e-16,-1.2246467991473532e-16,-1,311.5486725663717,27.50442477876107)" style="stroke: none; fill: rgb(208, 2, 27); stroke-width: 1;"><path d=" M3.57,-1.72 L0,0 L3.57,1.72 Z"/></g><g stroke="none" fill="rgb(208,2,27)" fill-opacity="1" transform="matrix(1,0,0,1,279.9026548672566,27.504424778761067)" style="stroke: none; fill: rgb(208, 2, 27); stroke-width: 1;"><path d=" M3.57,-1.72 L0,0 L3.57,1.72 Z"/></g></g><g class="arrow-line"><path class="connection real" stroke-dasharray="2 2" d="  M312.72,122.66 L394.99,122.88" style="stroke: rgb(0, 0, 0); stroke-width: 1; fill: none; fill-opacity: 1;"/></g><g class="arrow-line"><path class="connection real" stroke-dasharray="" d="  M394.99,173.88 L394.99,125.88" style="stroke: rgb(0, 0, 0); stroke-width: 1; fill: none; fill-opacity: 1;"/><g stroke="none" fill="#000" transform="matrix(3.061616997868383e-16,1,-1,3.061616997868383e-16,394.9857423795476,122.882005899705)" style="stroke: none; fill: rgb(0, 0, 0); stroke-width: 1;"><path d=" M3.57,-1.72 L0,0 L3.57,1.72 Z"/></g><g stroke="none" fill="#000" transform="matrix(-1.8369701987210297e-16,-1,1,-1.8369701987210297e-16,394.9857423795477,176.882005899705)" style="stroke: none; fill: rgb(0, 0, 0); stroke-width: 1;"><path d=" M3.57,-1.72 L0,0 L3.57,1.72 Z"/></g></g><g class="arrow-line"><path class="connection real" stroke-dasharray="" d="  M423,174 L423,123" style="stroke: rgb(0, 0, 0); stroke-width: 1; fill: none; fill-opacity: 1;"/><g stroke="none" fill="#000" transform="matrix(3.061616997868383e-16,1,-1,3.061616997868383e-16,423,120)" style="stroke: none; fill: rgb(0, 0, 0); stroke-width: 1;"><path d=" M3.57,-1.72 L0,0 L3.57,1.72 Z"/></g><g stroke="none" fill="#000" transform="matrix(-1.8369701987210297e-16,-1,1,-1.8369701987210297e-16,423,176.99999999999994)" style="stroke: none; fill: rgb(0, 0, 0); stroke-width: 1;"><path d=" M3.57,-1.72 L0,0 L3.57,1.72 Z"/></g></g><g class="arrow-line"><path class="connection real" stroke-dasharray="" d="  M305.91,71.27 L320.09,67.73" style="stroke: rgb(0, 0, 0); stroke-width: 1; fill: none; fill-opacity: 1;"/><g stroke="none" fill="#000" transform="matrix(-0.970126596490106,0.24259923079540677,-0.24259923079540677,-0.970126596490106,322.99999999999994,67)" style="stroke: none; fill: rgb(0, 0, 0); stroke-width: 1;"><path d=" M3.57,-1.72 L0,0 L3.57,1.72 Z"/></g><g stroke="none" fill="#000" transform="matrix(0.9701265964901058,-0.24259923079540752,0.24259923079540752,0.9701265964901058,303,72)" style="stroke: none; fill: rgb(0, 0, 0); stroke-width: 1;"><path d=" M3.57,-1.72 L0,0 L3.57,1.72 Z"/></g></g><g class="arrow-line"><path class="connection real" stroke-dasharray="" d="  M42,135 L42,111" style="stroke: rgb(0, 0, 0); stroke-width: 1; fill: none; fill-opacity: 1;"/><g stroke="none" fill="#000" transform="matrix(3.061616997868383e-16,1,-1,3.061616997868383e-16,42.000000000000014,108)" style="stroke: none; fill: rgb(0, 0, 0); stroke-width: 1;"><path d=" M5.36,-2.57 L0,0 L5.36,2.57 Z"/></g></g><g class="arrow-line"><path class="connection real" stroke-dasharray="" d="  M39,132 L63,132" style="stroke: rgb(0, 0, 0); stroke-width: 1; fill: none; fill-opacity: 1;"/><g stroke="none" fill="#000" transform="matrix(-1,1.2246467991473532e-16,-1.2246467991473532e-16,-1,65.99999999999999,132)" style="stroke: none; fill: rgb(0, 0, 0); stroke-width: 1;"><path d=" M5.36,-2.57 L0,0 L5.36,2.57 Z"/></g></g><g/></g><g/><g/><g/></svg>
        <svg xmlns="http://www.w3.org/2000/svg" xmlns:xlink="http://www.w3.org/1999/xlink" width="453.99603271484375" height="286.99078369140625" style="width:453.99603271484375px;height:286.99078369140625px;font-family:Sans-Math, Sans, Asana-Math, Asana, Arial;background:#FFF;"><g><g><g><text x="46.065216064453125" y="243.854248046875" style="white-space:pre;stroke:none;fill:rgb(0,0,0);fill-opacity:1;font-size:15px;font-family:Arial, Helvetica, sans-serif;font-weight:400;font-style:normal;dominant-baseline:text-before-edge;text-decoration:none solid rgb(0, 0, 0);">plane mirror</text></g></g></g><g><g><g><text x="342.9974670410156" y="53.03276062011719" style="white-space:pre;stroke:none;fill:rgb(0,0,0);fill-opacity:1;font-size:15px;font-family:Arial, Helvetica, sans-serif;font-weight:400;font-style:normal;dominant-baseline:text-before-edge;text-decoration:none solid rgb(0, 0, 0);">plane grating</text></g></g></g><g><g><g><g transform="matrix(1,0,0,1,137.76864624023438,161.4398193359375)"><path transform="matrix(0.017,0,0,-0.017,0,0)" d="M351 750C154 750 65 500 65 256C65 88 128 -12 251 -12C447 -12 538 230 538 485C538 653 476 750 351 750ZM345 676C414 676 448 629 448 497C448 466 446 439 443 407L169 407C201 597 260 676 345 676ZM434 337C407 149 345 63 257 63C190 63 155 106 155 242C155 275 157 303 160 337Z" stroke="rgb(0,0,0)" stroke-opacity="1" stroke-width="8" fill="rgb(0,0,0)" fill-opacity="1"></path></g></g></g></g><g><g><g><g transform="matrix(1,0,0,1,187.89279174804688,149.57437133789062)"><path transform="matrix(0.017,0,0,-0.017,0,0)" d="M351 750C154 750 65 500 65 256C65 88 128 -12 251 -12C447 -12 538 230 538 485C538 653 476 750 351 750ZM345 676C414 676 448 629 448 497C448 466 446 439 443 407L169 407C201 597 260 676 345 676ZM434 337C407 149 345 63 257 63C190 63 155 106 155 242C155 275 157 303 160 337Z" stroke="rgb(0,0,0)" stroke-opacity="1" stroke-width="8" fill="rgb(0,0,0)" fill-opacity="1"></path></g></g></g></g><g><g><g><g transform="matrix(1,0,0,1,315.7752990722656,156.1651611328125)"><path transform="matrix(0.017,0,0,-0.017,0,0)" d="M294 539C114 539 51 332 51 188C51 55 120 -12 216 -12C305 -12 356 53 394 136L395 85C396 28 433 -6 476 -13L515 62C486 73 479 86 478 113L471 250L565 527L481 527L437 381C430 494 382 539 294 539ZM296 466C357 466 391 427 396 269C338 97 276 61 227 61C174 61 147 97 147 187C147 276 182 466 296 466Z" stroke="rgb(0,0,0)" stroke-opacity="1" stroke-width="8" fill="rgb(0,0,0)" fill-opacity="1"></path></g></g></g></g><g><g><g><g transform="matrix(1,0,0,1,363.2420349121094,152.21170043945312)"><path transform="matrix(0.017,0,0,-0.017,0,0)" d="M27 -216L120 -204L154 41C195 6 248 -12 300 -12C471 -12 546 119 546 223C546 349 452 391 371 399C496 418 543 506 543 583C543 688 464 750 360 750C237 750 151 675 133 544ZM293 62C241 62 196 80 165 113L224 538C237 631 284 678 359 678C417 678 457 650 457 582C457 519 418 433 316 433L269 433L250 363L303 363C401 363 453 314 453 225C453 154 417 62 293 62Z" stroke="rgb(0,0,0)" stroke-opacity="1" stroke-width="8" fill="rgb(0,0,0)" fill-opacity="1"></path></g></g></g></g><g><g><g><g transform="matrix(1,0,0,1,160.99716186523438,199.03042602539062)"><path transform="matrix(0.017,0,0,-0.017,0,0)" d="M553 0L696 0L446 688L276 688L25 0L169 0L230 176L492 176ZM361 582L371 548L392 482L460 284L262 284C313 434 341 516 346 531C351 546 355 559 358 571Z" stroke="rgb(0,0,0)" stroke-opacity="1" stroke-width="8" fill="rgb(0,0,0)" fill-opacity="1"></path></g></g></g></g><g><g><g><g transform="matrix(1,0,0,1,247.99862670898438,184.03033447265625)"><path transform="matrix(0.017,0,0,-0.017,0,0)" d="M680 349C680 458 648 542 585 600C522 658 432 688 316 688L67 688L67 0L345 0C411 0 469 14 520 42C571 70 610 110 638 163C666 216 680 278 680 349ZM535 349C535 276 516 218 480 175C444 132 395 111 333 111L211 111L211 577L313 577C384 577 440 557 478 518C516 479 535 423 535 349Z" stroke="rgb(0,0,0)" stroke-opacity="1" stroke-width="8" fill="rgb(0,0,0)" fill-opacity="1"></path></g></g></g></g><g><g><g><g transform="matrix(1,0,0,1,224.79519653320312,237.9171142578125)"><path transform="matrix(0.017,0,0,-0.017,0,0)" d="M443 155C443 180 437 201 425 219C413 237 397 254 376 267C355 280 324 293 283 306C236 321 207 332 194 339C181 346 171 355 164 364C157 373 154 385 154 399C154 422 164 440 186 453C208 466 239 473 279 473C313 473 339 467 359 456C379 445 393 426 400 400L479 412C465 495 400 537 285 537C216 537 163 524 125 498C87 472 69 436 69 389C69 366 74 345 85 328C96 311 112 296 133 283C154 270 185 257 227 243C281 226 316 212 333 198C350 184 357 167 357 147C357 117 345 94 321 78C297 62 262 54 215 54C177 54 147 61 124 74C101 87 85 107 74 136L2 109C15 68 40 38 73 19C106 0 151 -10 208 -10C284 -10 342 5 382 33C422 61 443 102 443 155Z" stroke="rgb(0,0,0)" stroke-opacity="1" stroke-width="8" fill="rgb(0,0,0)" fill-opacity="1"></path></g></g></g></g><g><g><g><g transform="matrix(1,0,0,1,288.9951477050781,228.03091430664062)"><path transform="matrix(0.017,0,0,-0.017,0,0)" d="M453 -5C473 -5 494 -2 515 3L522 58C511 56 502 54 493 54C467 54 453 66 453 90C453 103 454 117 458 133L495 317C501 347 504 373 504 394C504 438 487 473 455 499C423 525 379 538 323 538C262 538 213 528 177 506C141 484 116 449 101 401L188 387C197 415 210 436 230 450C250 464 279 471 318 471C349 471 373 464 390 450C407 436 416 414 416 384C416 375 413 354 407 322L293 321C199 320 130 303 87 272C44 241 22 196 22 136C22 94 37 58 65 31C93 4 130 -10 176 -10C217 -10 252 -1 281 15C310 31 338 60 365 101L368 101L366 70C366 45 372 27 386 14C400 1 423 -5 453 -5ZM395 262L382 201C377 176 366 152 349 130C332 108 311 91 286 77C261 63 233 57 201 57C176 57 155 65 139 80C123 95 116 116 116 140C116 160 119 177 126 191C133 205 143 217 155 226C167 235 185 243 207 249C229 255 259 259 298 260Z" stroke="rgb(208,2,27)" stroke-opacity="1" stroke-width="8" fill="rgb(208,2,27)" fill-opacity="1"></path></g></g></g></g><g><g><g><g transform="matrix(1,0,0,1,262.9986877441406,49.03465270996094)"><path transform="matrix(0.017,0,0,-0.017,0,0)" d="M388 104C323 104 273 124 238 166C203 208 186 268 186 347C186 425 203 484 237 524C271 564 320 585 385 585C428 585 465 574 496 554C527 534 548 507 559 472L686 507C665 570 630 618 579 650C528 682 463 698 382 698C271 698 186 668 128 607C70 546 41 460 41 347C41 234 72 147 132 84C192 21 277 -10 388 -10C461 -10 524 7 576 39C628 71 668 121 695 187L569 234C535 147 475 104 388 104Z" stroke="rgb(0,0,0)" stroke-opacity="1" stroke-width="8" fill="rgb(0,0,0)" fill-opacity="1"></path></g></g></g></g><g><g><g><g transform="matrix(1,0,0,1,228.99484252929688,150.031494140625)"><path transform="matrix(0.017,0,0,-0.017,0,0)" d="M394 103C328 103 276 125 240 167C204 209 186 269 186 347C186 423 204 482 239 523C274 564 325 585 393 585C434 585 470 576 501 558C532 540 554 514 568 479L701 519C657 638 554 698 393 698C279 698 193 668 132 608C71 548 41 460 41 347C41 233 71 145 131 83C191 21 278 -10 390 -10C454 -10 515 1 573 22C631 43 680 73 716 110L716 363L416 363L416 256L584 256L584 161C565 144 537 130 502 119C467 108 431 103 394 103Z" stroke="rgb(0,0,0)" stroke-opacity="1" stroke-width="8" fill="rgb(0,0,0)" fill-opacity="1"></path></g></g></g></g><g><g><g><g transform="matrix(1,0,0,1,298.9969177246094,120.03134155273438)"><path transform="matrix(0.017,0,0,-0.017,0,0)" d="M677 196C677 243 662 281 633 309C604 337 562 355 506 362C550 371 583 389 605 416C627 443 637 476 637 515C637 572 616 615 573 644C530 673 466 688 382 688L67 688L67 0L411 0C494 0 559 17 606 51C653 85 677 134 677 196ZM492 496C492 468 483 446 465 432C447 418 417 411 376 411L211 411L211 581L375 581C414 581 443 575 463 562C483 549 492 527 492 496ZM532 208C532 174 521 149 500 132C479 115 445 107 399 107L211 107L211 304L394 304C486 304 532 272 532 208Z" stroke="rgb(0,0,0)" stroke-opacity="1" stroke-width="8" fill="rgb(0,0,0)" fill-opacity="1"></path></g></g></g></g><g><g><g><g transform="matrix(1,0,0,1,337.9941101074219,115.03298950195312)"><path transform="matrix(0.017,0,0,-0.017,0,0)" d="M677 196C677 243 662 281 633 309C604 337 562 355 506 362C550 371 583 389 605 416C627 443 637 476 637 515C637 572 616 615 573 644C530 673 466 688 382 688L67 688L67 0L411 0C494 0 559 17 606 51C653 85 677 134 677 196ZM492 496C492 468 483 446 465 432C447 418 417 411 376 411L211 411L211 581L375 581C414 581 443 575 463 562C483 549 492 527 492 496ZM532 208C532 174 521 149 500 132C479 115 445 107 399 107L211 107L211 304L394 304C486 304 532 272 532 208Z" stroke="rgb(0,0,0)" stroke-opacity="1" stroke-width="8" fill="rgb(0,0,0)" fill-opacity="1"></path></g></g><g><g transform="matrix(1,0,0,1,350.2714538574219,115.03298950195312)"><path transform="matrix(0.017,0,0,-0.017,0,0)" d="M75 427L144 427L159 689L60 689Z" stroke="rgb(0,0,0)" stroke-opacity="1" stroke-width="8" fill="rgb(0,0,0)" fill-opacity="1"></path></g></g></g></g><g><g><g><g transform="matrix(1,0,0,1,263.0338439941406,112.65188598632812)"><path transform="matrix(0.017,0,0,-0.017,0,0)" d="M229 60C158 60 123 103 123 190C123 237 130 284 144 332C158 380 178 414 203 436C228 458 261 469 302 469C332 469 355 461 373 444C391 427 400 403 402 371L489 383C486 431 468 469 436 497C404 525 360 538 305 538C248 538 201 525 162 498C123 471 92 431 68 375C44 319 33 258 33 193C33 129 49 78 83 43C117 8 165 -10 227 -10C334 -10 407 43 446 148L370 172C343 97 296 60 229 60Z" stroke="rgb(208,2,27)" stroke-opacity="1" stroke-width="8" fill="rgb(208,2,27)" fill-opacity="1"></path></g></g></g></g><g><g><g><g transform="matrix(1,0,0,1,238.99655151367188,94.03489685058594)"><path transform="matrix(0.017,0,0,-0.017,0,0)" d="M248 0L548 528L452 528L265 184C249 155 234 126 219 95L207 69L205 95C202 133 198 163 195 185L146 528L55 528L144 0Z" stroke="rgb(208,2,27)" stroke-opacity="1" stroke-width="8" fill="rgb(208,2,27)" fill-opacity="1"></path></g></g></g></g><g><g><g><g transform="matrix(1,0,0,1,305.9945983886719,174.03363037109375)"><path transform="matrix(0.017,0,0,-0.017,0,0)" d="M67 0L628 0L628 111L211 111L211 292L578 292L578 404L211 404L211 577L608 577L608 688L67 688Z" stroke="rgb(0,0,0)" stroke-opacity="1" stroke-width="8" fill="rgb(0,0,0)" fill-opacity="1"></path></g></g></g></g><g><g><g><g transform="matrix(1,0,0,1,290.7232360839844,19.034500122070312)"><path transform="matrix(0.017,0,0,-0.017,0,0)" d="M187 438L186 438C195 471 202 503 208 536L245 725L157 725L17 0L104 0L162 296C172 349 193 392 224 423C255 454 292 470 333 470C391 470 420 442 420 388C420 368 417 344 411 315L350 0L438 0L500 319C507 352 510 378 510 399C510 444 498 478 474 502C450 526 413 538 365 538C328 538 295 530 268 516C241 502 214 475 187 438Z" stroke="rgb(208,2,27)" stroke-opacity="1" stroke-width="8" fill="rgb(208,2,27)" fill-opacity="1"></path></g></g></g></g><g><g><g><g transform="matrix(1,0,0,1,399.9987487792969,156.0345458984375)"><path transform="matrix(0.017,0,0,-0.017,0,0)" d="M363 538C324 538 292 531 266 517C240 503 214 481 190 450L188 450C196 481 202 503 205 518L246 725L158 725L38 109C33 85 29 62 24 40C19 18 16 5 14 0L99 0C100 1 102 13 108 35C114 57 118 75 120 87L121 87C131 56 149 33 174 16C199 -1 232 -10 272 -10C328 -10 375 5 411 35C447 65 475 111 495 173C515 235 525 299 525 365C525 419 511 461 483 492C455 523 414 538 363 538ZM338 470C371 470 396 460 411 440C426 420 434 390 434 350C434 310 427 263 414 209C401 155 381 117 358 92C335 67 303 55 263 55C226 55 198 66 177 89C156 112 146 143 146 184C146 216 150 251 159 291C168 331 181 364 197 391C213 418 232 437 255 450C278 463 306 470 338 470Z" stroke="rgb(0,0,0)" stroke-opacity="1" stroke-width="8" fill="rgb(0,0,0)" fill-opacity="1"></path></g></g></g></g><g><g><g><g transform="matrix(1,0,0,1,430.9985656738281,156.0345458984375)"><path transform="matrix(0.017,0,0,-0.017,0,0)" d="M363 538C324 538 292 531 266 517C240 503 214 481 190 450L188 450C196 481 202 503 205 518L246 725L158 725L38 109C33 85 29 62 24 40C19 18 16 5 14 0L99 0C100 1 102 13 108 35C114 57 118 75 120 87L121 87C131 56 149 33 174 16C199 -1 232 -10 272 -10C328 -10 375 5 411 35C447 65 475 111 495 173C515 235 525 299 525 365C525 419 511 461 483 492C455 523 414 538 363 538ZM338 470C371 470 396 460 411 440C426 420 434 390 434 350C434 310 427 263 414 209C401 155 381 117 358 92C335 67 303 55 263 55C226 55 198 66 177 89C156 112 146 143 146 184C146 216 150 251 159 291C168 331 181 364 197 391C213 418 232 437 255 450C278 463 306 470 338 470ZM631 427L700 427L715 689L616 689Z" stroke="rgb(0,0,0)" stroke-opacity="1" stroke-width="8" fill="rgb(0,0,0)" fill-opacity="1"></path></g></g></g></g><g><g><g><g transform="matrix(1,0,0,1,307.9989318847656,66.03407287597656)"><path transform="matrix(0.017,0,0,-0.017,0,0)" d="M125 246L507 246C515 279 519 312 519 346C519 407 500 454 463 488C426 522 375 538 308 538C256 538 208 524 166 495C124 466 91 426 68 374C45 322 34 263 34 198C34 132 52 81 88 45C124 9 176 -10 241 -10C293 -10 337 0 374 20C411 40 440 70 464 113L397 144C383 117 363 96 337 80C311 64 283 56 251 56C207 56 175 68 153 91C131 114 121 147 121 190C122 215 123 235 125 246ZM430 313L137 313C149 364 169 403 199 431C229 459 266 473 310 473C349 473 379 462 400 441C421 420 432 388 432 348Z" stroke="rgb(0,0,0)" stroke-opacity="1" stroke-width="8" fill="rgb(0,0,0)" fill-opacity="1"></path></g></g></g></g><g><g><g><g transform="matrix(1,0,0,1,69.99703979492188,139.03512573242188)"><path transform="matrix(0.017,0,0,-0.017,0,0)" d="M345 0L438 0L300 272L529 528L429 528L258 323L164 528L71 528L200 271L-40 0L57 0L243 217Z" stroke="rgb(0,0,0)" stroke-opacity="1" stroke-width="8" fill="rgb(0,0,0)" fill-opacity="1"></path></g></g></g></g><g><g><g><g transform="matrix(1,0,0,1,37.997528076171875,103.03193664550781)"><path transform="matrix(0.017,0,0,-0.017,0,0)" d="M8 -208C38 -208 65 -202 89 -189C113 -176 135 -157 157 -132C179 -107 209 -63 245 0L550 528L453 528C311 268 237 132 232 122C227 112 222 103 219 96C219 105 216 124 212 153C208 182 204 210 199 236L144 528L55 528L161 6L147 -17C124 -57 102 -87 78 -108C54 -129 27 -139 -4 -139C-14 -139 -27 -138 -42 -135L-57 -201C-37 -206 -15 -208 8 -208Z" stroke="rgb(0,0,0)" stroke-opacity="1" stroke-width="8" fill="rgb(0,0,0)" fill-opacity="1"></path></g></g></g></g></svg>
</svg>
